<?xml version="1.0" encoding="UTF-8"?>
<svg id="_圖層_2" data-name=" 圖層 2" xmlns="http://www.w3.org/2000/svg" viewBox="0 0 393.97 112.5">
  <defs>
    <style>
      .cls-1 {
        fill: #fff;
      }
    </style>
  </defs>
  <path class="cls-1" d="M296.63,0h4.04c-.21.9-.29,1.69-.29,3.06v9.43c0,2.34-.99,4.24-2.9,5.6s-4.96,2.11-8.63,2.11c-7.34,0-11.41-2.75-11.41-7.71V3.11c0-1.38-.07-2.24-.29-3.11h4.04c-.21.83-.29,1.67-.29,3.11v9.3c0,3.63,2.86,5.66,8.04,5.66s8.01-2,8.01-5.65V3.11c0-1.38-.07-2.21-.29-3.11h0Z"/>
  <path class="cls-1" d="M245.31,16.58V7.35c0-.93.15-3.4.26-4.54-.59,1.56-1.02,2.37-2.27,4.35l-6.24,9.79c-.77,1.18-1.1,1.87-1.47,2.88h-3.09c-.18-.75-.66-1.75-1.43-2.9l-6.06-9.61c-1.07-1.67-1.35-2.21-2.42-4.53.15,1.87.26,3.99.26,4.76v9.05c0,1.47.07,2.33.29,3.24h-3.85c.21-.97.29-1.78.29-3.24V3.27c0-1.38-.07-2.28-.29-3.26h4.96c.26.83.7,1.8,1.25,2.69l8.59,13.75,8.59-13.75c.66-1.08,1.02-1.85,1.25-2.69h4.96c-.21,1.06-.29,1.8-.29,3.26v13.31c0,1.54.07,2.32.29,3.24h-3.85c.18-.85.29-1.93.29-3.24h0Z"/>
  <path class="cls-1" d="M187.01,0h4.03c-.21.9-.29,1.69-.29,3.06v9.43c0,2.34-.99,4.24-2.9,5.6-1.91,1.36-4.96,2.11-8.63,2.11-7.34,0-11.42-2.75-11.42-7.71V3.11c0-1.38-.07-2.24-.29-3.11h4.03c-.21.83-.29,1.67-.29,3.11v9.3c0,3.63,2.86,5.66,8.03,5.66s8-2,8-5.65V3.11c0-1.38-.07-2.21-.29-3.11h0,0Z"/>
  <path class="cls-1" d="M135.68,16.58V7.35c0-.93.15-3.4.26-4.54-.58,1.56-1.03,2.37-2.28,4.35l-6.24,9.79c-.77,1.18-1.1,1.87-1.47,2.88h-3.08c-.19-.75-.66-1.75-1.43-2.9l-6.06-9.61c-1.06-1.67-1.35-2.21-2.42-4.53.15,1.87.26,3.99.26,4.76v9.05c0,1.47.08,2.33.29,3.24h-3.85c.22-.97.29-1.78.29-3.24V3.27c0-1.38-.08-2.28-.29-3.26h4.96c.26.83.69,1.8,1.25,2.69l8.59,13.75,8.59-13.75c.66-1.08,1.03-1.85,1.25-2.69h4.96c-.22,1.06-.29,1.8-.29,3.26v13.31c0,1.54.08,2.32.29,3.24h-3.85c.19-.85.29-1.93.29-3.24h0,0Z"/>
  <path class="cls-1" d="M55.36,67.67h-20.12c4.17,7.2,7.77,12.14,12.14,16.66,5.65,5.93,11.3,10.24,18,13.98-1.76,1.76-2.4,2.47-3.53,4.45-4.31-2.89-6.07-4.24-9.53-7.27-5.65-4.94-7.98-7.41-11.72-12.57-2.33-3.18-3.6-5.29-6.42-10.59.21,3.32.35,6.49.35,9.11v22.94c0,3.32.14,5.86.49,8.12h-5.72c.35-2.47.49-4.87.49-8.12v-22.94c0-2.33.14-5.93.28-8.82-3.67,7.77-7.48,13.27-12.85,18.78-4.31,4.38-8.54,8.05-13.62,11.58-1.06-1.69-2.19-3.04-3.6-4.09,6.28-3.81,12.85-9.32,17.93-15.04,4.24-4.73,7.27-9.11,11.22-16.17H10.16c-2.82,0-5.08.14-7.77.42v-5.08c2.4.35,4.66.49,7.69.49h19.7v-7.84c0-2.4-.14-4.24-.49-6.49h5.72c-.35,2.19-.49,4.24-.49,6.42v7.91h20.75c3.67,0,5.86-.14,7.98-.49v5.08c-2.54-.28-5.22-.42-7.91-.42h.02ZM165,67.67h-20.12c4.17,7.2,7.77,12.14,12.14,16.66,5.65,5.93,11.3,10.24,18,13.98-1.76,1.76-2.4,2.47-3.53,4.45-4.31-2.89-6.07-4.24-9.53-7.27-5.65-4.94-7.98-7.41-11.72-12.57-2.33-3.18-3.6-5.29-6.42-10.59.21,3.32.35,6.49.35,9.11v22.94c0,3.32.14,5.86.49,8.12h-5.72c.35-2.47.49-4.87.49-8.12v-22.94c0-2.33.14-5.93.28-8.82-3.67,7.77-7.48,13.27-12.85,18.78-4.31,4.38-8.54,8.05-13.62,11.58-1.06-1.69-2.19-3.04-3.6-4.09,6.28-3.81,12.85-9.32,17.93-15.04,4.24-4.73,7.27-9.11,11.22-16.17h-18.99c-2.82,0-5.08.14-7.77.42v-5.08c2.4.35,4.66.49,7.69.49h19.7v-7.84c0-2.4-.14-4.24-.49-6.49h5.72c-.35,2.19-.49,4.24-.49,6.42v7.91h20.75c3.67,0,5.86-.14,7.98-.49v5.08c-2.54-.28-5.22-.42-7.91-.42h.02ZM270.18,71.27h-12.5c.42,4.38.64,6,1.62,9.95l16.1-.21c4.09,0,5.72-.14,7.48-.49v4.87c-1.74-.14-4.21-.21-7.41-.21l-15.04.14c1.91,5.93,4.87,11.08,8.97,15.46,2.75,2.96,6.21,5.37,7.69,5.37,1.62,0,2.68-3.11,3.32-10.17,1.76,1.48,2.4,1.84,4.24,2.68-1.55,9.39-3.39,12.57-7.13,12.57s-9.6-4.31-14.19-10.73c-3.46-4.8-5.72-9.32-7.55-15.11l-20.75.28v18.78c7.41-1.62,13.41-3.32,21.11-5.93l.14,4.38c-10.87,3.6-16.87,5.22-28.87,7.69-1.69.35-3.11.71-3.88.99l-1.2-5.08c1.84-.07,4.31-.42,8.12-1.13v-45.18c0-3.46-.07-5.29-.28-7.98,2.26.28,4.45.35,8.26.35h31.41c3.11,0,5.15-.07,7.34-.35-.21,1.41-.21,2.47-.21,5.65v8.4c0,2.61.07,3.95.21,5.22-2.12-.14-4.17-.21-6.99-.21h-.01ZM253.1,71.27h-18.07v10.24l19.7-.21c-.71-3.39-1.13-5.93-1.62-10.02h-.01ZM235.03,56.59v10.73h37.49v-10.73h-37.49ZM369.54,69.72h-9.11c-2.4,0-4.66.14-6.64.35v-4.52c2.05.21,4.17.35,6.71.35h20.61c2.68,0,5.01-.14,6.85-.35v4.52c-2.05-.21-4.09-.35-6.64-.35h-7.13c-1.34,3.88-2.05,5.86-3.18,8.05h11.22c3.32,0,5.15-.07,6.99-.28-.21,1.62-.28,3.46-.28,6.49v20.68c0,2.89.14,5.29.42,7.69h-4.8v-3.53h-24.92v3.39h-4.8c.21-1.76.35-4.09.35-7.13l.07-21.25c0-2.33-.14-4.38-.35-6.35,1.91.21,3.67.28,6.85.28h4.73c1.27-2.68,2.4-5.58,3.04-8.05h0ZM359.65,81.51v9.46h24.92v-9.46h-24.92ZM359.65,94.71v10.24h24.92v-10.24h-24.92ZM361.56,55.39v-1.69c0-1.98-.14-3.46-.42-5.15h5.44c-.35,1.62-.49,3.11-.49,5.15v1.69h20.75c3.25,0,4.94-.07,7.13-.35-.21,1.76-.28,3.32-.28,5.65v3.88c0,2.19.07,3.53.28,4.94h-4.59v-10.1h-50.26v10.73h-4.59c.21-1.41.28-2.89.28-4.87v-5.37c0-2.05-.07-3.32-.28-4.87,2.61.28,4.38.35,7.13.35h19.91-.01ZM341.3,103.67v-11.58c0-4.45.07-6.28.21-10.45-2.75,3.88-4.52,6-7.69,8.97-.92-1.48-1.55-2.26-2.96-3.53,4.87-4.38,7.27-7.2,10.45-11.93,3.11-4.8,5.51-9.74,6.57-13.91l4.66,1.55c-.49.78-.78,1.48-1.62,3.39-1.41,3.39-3.04,6.57-5.15,10.02v27.46c0,3.88.07,6.07.35,8.75h-5.22c.28-2.54.42-4.66.42-8.75h-.02Z"/>
</svg>