<?xml version="1.0" encoding="UTF-8"?>
<svg id="_圖層_2" xmlns="http://www.w3.org/2000/svg" version="1.1" viewBox="0 0 494.44 165.64">
  <!-- Generator: Adobe Illustrator 29.6.1, SVG Export Plug-In . SVG Version: 2.1.1 Build 9)  -->
  <defs>
    <style>
      .st0 {
        fill: #231815;
      }
    </style>
  </defs>
  <path class="st0" d="M464.45,97.56h4.54c-.24,1.01-.33,1.9-.33,3.44v10.6c0,2.63-1.11,4.77-3.26,6.3s-5.58,2.37-9.7,2.37c-8.25,0-12.84-3.09-12.84-8.67v-10.54c0-1.56-.08-2.52-.33-3.5h4.54c-.24.93-.33,1.88-.33,3.5v10.46c0,4.08,3.22,6.36,9.04,6.36s9-2.26,9-6.36v-10.46c0-1.56-.08-2.48-.33-3.5h0Z"/>
  <path class="st0" d="M406.73,116.2v-10.38c0-1.04.17-3.82.29-5.11-.66,1.76-1.15,2.66-2.56,4.88l-7.02,11.01c-.87,1.33-1.24,2.11-1.65,3.23h-3.47c-.21-.84-.74-1.96-1.61-3.27l-6.81-10.81c-1.2-1.88-1.52-2.48-2.72-5.09.17,2.11.29,4.48.29,5.35v10.17c0,1.65.08,2.63.33,3.64h-4.34c.24-1.09.33-2,.33-3.64v-14.97c0-1.56-.08-2.57-.33-3.67h5.58c.29.93.78,2.02,1.41,3.03l9.66,15.46,9.66-15.46c.74-1.21,1.15-2.08,1.41-3.03h5.58c-.24,1.19-.33,2.02-.33,3.67v14.97c0,1.74.08,2.6.33,3.64h-4.34c.21-.95.33-2.16.33-3.64Z"/>
  <path class="st0" d="M341.17,97.56h4.54c-.24,1.01-.33,1.9-.33,3.44v10.6c0,2.63-1.11,4.77-3.26,6.3-2.15,1.53-5.58,2.37-9.7,2.37-8.25,0-12.84-3.09-12.84-8.67v-10.54c0-1.56-.08-2.52-.33-3.5h4.54c-.24.93-.33,1.88-.33,3.5v10.46c0,4.08,3.22,6.36,9.04,6.36s9-2.26,9-6.36v-10.46c0-1.56-.08-2.48-.33-3.5h0Z"/>
  <path class="st0" d="M283.46,116.2v-10.38c0-1.04.17-3.82.29-5.11-.66,1.76-1.15,2.66-2.56,4.88l-7.02,11.01c-.87,1.33-1.24,2.11-1.65,3.23h-3.47c-.21-.84-.74-1.96-1.61-3.27l-6.81-10.81c-1.2-1.88-1.52-2.48-2.73-5.09.17,2.11.29,4.48.29,5.35v10.17c0,1.65.08,2.63.33,3.64h-4.34c.24-1.09.33-2,.33-3.64v-14.97c0-1.56-.08-2.57-.33-3.67h5.58c.29.93.78,2.02,1.41,3.03l9.66,15.46,9.66-15.46c.74-1.21,1.15-2.08,1.41-3.03h5.58c-.24,1.19-.33,2.02-.33,3.67v14.97c0,1.74.08,2.6.33,3.64h-4.34c.21-.95.33-2.16.33-3.64h0Z"/>
  <path class="st0" d="M55.41,123.91h-5.87c.36-14.92.57-26.35.66-38.28,1.44-.81,2.92-1.62,4.44-2.43.08,12.67.33,24.78.78,40.72Z"/>
  <path class="st0" d="M195.73,49.33v6.62c-10.42-1.2-20.16-2.23-29.41-3.07-.09,7.56-.16,13.55-.15,20.8l-.87.32c-1.18.44-2.35.87-3.51,1.3.02-7.94,0-14.56-.09-22.84-38.25-3.31-68.65-3.48-106.96-.2-.1,7.77-.15,14.21-.13,21.65l-.13.07-.04.02-1.03.56c-1.08.58-2.14,1.15-3.17,1.7.02-8.07-.02-15.19-.11-23.58-9.66.88-19.84,1.97-30.79,3.28v-6.62c10.92-.78,21.08-1.44,30.73-1.97-.12-8.85-.29-18.29-.52-28.95h5.87c-.26,10.56-.46,19.93-.6,28.7,37.94-1.96,68.32-1.91,106.83.11-.12-8.81-.29-18.21-.52-28.81h5.87c-.26,10.7-.47,20.18-.6,29.06,9.22.51,18.93,1.13,29.34,1.86h0Z"/>
  <path class="st0" d="M185.03,141.46v-7.07c-59.14,8.71-92.45,9.07-152.06,0v7.07c59.02,4.59,92.35,4.54,152.06,0Z"/>
  <path class="st0" d="M166.99,123.91h-5.87c.37-15.32.58-27.16.67-39.38,1.45-.56,2.92-1.1,4.41-1.65,0,0,.02,0,.02,0,.08,12.72.33,25.02.78,41.03h0Z"/>
  <path class="st0" d="M219.81,91.11v7.87h-2.65c-9.78,0-17.4-2.62-25.13-6.18-7.72-3.55-15.55-8.04-25.74-11.75l-.04-.02-.04.02s-.01,0-.02,0c-1.5.55-2.97,1.1-4.42,1.66-3.72,1.42-7.3,2.85-10.77,4.23-4.82,1.92-9.44,3.74-13.92,5.32-8.83,3.1-17.14,5.24-25.58,5.27h-.4c-8.55-.04-17.19-2.26-26.4-5.42-4.61-1.58-9.35-3.39-14.29-5.28-4.94-1.89-10.08-3.85-15.47-5.73l-.04-.02-.04.02c-.08.04-.16.09-.25.13-1.52.81-2.99,1.62-4.42,2.43-14.98,8.42-25.94,16.38-43.5,17.74l-4.06.29-2.64.18v-9.14l2.58-.17,3.96-.28c18-1.39,28.23-6.1,43.69-14.36,1.03-.54,2.08-1.12,3.16-1.7l1.02-.56.19.07.91.32,4.04,1.4c19.89,6.75,35.95,12.13,51.49,12.2,15.66.07,31.03-5.02,50.77-12.3,1.14-.42,2.3-.85,3.47-1.29l.9-.33h0l.9.32c21.75,7.84,31.32,15.05,50,15.05h2.72Z"/>
  <path class="st0" d="M282.67,63.4h-11.31c2.34,4.05,4.37,6.83,6.83,9.37,3.18,3.33,6.35,5.76,10.12,7.86-.99.99-1.35,1.39-1.98,2.5-2.42-1.63-3.41-2.38-5.36-4.09-3.18-2.78-4.49-4.17-6.59-7.07-1.31-1.79-2.02-2.98-3.61-5.95.12,1.87.2,3.65.2,5.12v12.9c0,1.87.08,3.29.28,4.56h-3.22c.2-1.39.28-2.74.28-4.56v-12.9c0-1.31.08-3.33.16-4.96-2.06,4.37-4.21,7.46-7.22,10.56-2.42,2.46-4.8,4.52-7.66,6.51-.6-.95-1.23-1.71-2.02-2.3,3.53-2.14,7.22-5.24,10.08-8.45,2.38-2.66,4.09-5.12,6.31-9.09h-10.68c-1.59,0-2.86.08-4.37.24v-2.86c1.35.2,2.62.28,4.33.28h11.07v-4.41c0-1.35-.08-2.38-.28-3.65h3.22c-.2,1.23-.28,2.38-.28,3.61v4.45h11.67c2.06,0,3.29-.08,4.49-.28v2.86c-1.43-.16-2.94-.24-4.45-.24ZM344.31,63.4h-11.31c2.34,4.05,4.37,6.83,6.83,9.37,3.18,3.33,6.35,5.76,10.12,7.86-.99.99-1.35,1.39-1.98,2.5-2.42-1.63-3.41-2.38-5.36-4.09-3.18-2.78-4.49-4.17-6.59-7.07-1.31-1.79-2.02-2.98-3.61-5.95.12,1.87.2,3.65.2,5.12v12.9c0,1.87.08,3.29.28,4.56h-3.22c.2-1.39.28-2.74.28-4.56v-12.9c0-1.31.08-3.33.16-4.96-2.06,4.37-4.21,7.46-7.22,10.56-2.42,2.46-4.8,4.52-7.66,6.51-.6-.95-1.23-1.71-2.02-2.3,3.53-2.14,7.22-5.24,10.08-8.45,2.38-2.66,4.09-5.12,6.31-9.09h-10.68c-1.59,0-2.86.08-4.37.24v-2.86c1.35.2,2.62.28,4.33.28h11.07v-4.41c0-1.35-.08-2.38-.28-3.65h3.22c-.2,1.23-.28,2.38-.28,3.61v4.45h11.67c2.06,0,3.29-.08,4.49-.28v2.86c-1.43-.16-2.94-.24-4.45-.24ZM403.45,65.43h-7.03c.24,2.46.36,3.37.91,5.6l9.05-.12c2.3,0,3.22-.08,4.21-.28v2.74q-1.47-.12-4.17-.12l-8.45.08c1.07,3.33,2.74,6.23,5.04,8.69,1.55,1.67,3.49,3.02,4.33,3.02.91,0,1.51-1.75,1.87-5.72.99.83,1.35,1.03,2.38,1.51-.87,5.28-1.91,7.07-4.01,7.07s-5.4-2.42-7.98-6.03c-1.94-2.7-3.22-5.24-4.25-8.49l-11.67.16v10.56c4.17-.91,7.54-1.87,11.87-3.33l.08,2.46c-6.11,2.02-9.49,2.94-16.23,4.33-.95.2-1.75.4-2.18.56l-.67-2.86c1.03-.04,2.42-.24,4.56-.64v-25.4c0-1.94-.04-2.98-.16-4.49,1.27.16,2.5.2,4.64.2h17.66c1.75,0,2.9-.04,4.13-.2-.12.79-.12,1.39-.12,3.18v4.72c0,1.47.04,2.22.12,2.94-1.19-.08-2.34-.12-3.93-.12ZM393.85,65.43h-10.16v5.76l11.07-.12c-.4-1.91-.64-3.33-.91-5.64ZM383.69,57.17v6.03h21.08v-6.03h-21.08ZM459.32,64.55h-5.12c-1.35,0-2.62.08-3.73.2v-2.54c1.15.12,2.34.2,3.77.2h11.59c1.51,0,2.82-.08,3.85-.2v2.54c-1.15-.12-2.3-.2-3.73-.2h-4.01c-.75,2.18-1.15,3.29-1.79,4.52h6.31c1.87,0,2.9-.04,3.93-.16-.12.91-.16,1.94-.16,3.65v11.63c0,1.63.08,2.98.24,4.33h-2.7v-1.98h-14.01v1.91h-2.7c.12-.99.2-2.3.2-4.01l.04-11.95c0-1.31-.08-2.46-.2-3.57,1.07.12,2.06.16,3.85.16h2.66c.71-1.51,1.35-3.14,1.71-4.52ZM453.76,71.18v5.32h14.01v-5.32h-14.01ZM453.76,78.6v5.76h14.01v-5.76h-14.01ZM454.83,56.5v-.95c0-1.11-.08-1.94-.24-2.9h3.06c-.2.91-.28,1.75-.28,2.9v.95h11.67c1.83,0,2.78-.04,4.01-.2-.12.99-.16,1.87-.16,3.18v2.18c0,1.23.04,1.98.16,2.78h-2.58v-5.68h-28.26v6.03h-2.58c.12-.79.16-1.63.16-2.74v-3.02c0-1.15-.04-1.87-.16-2.74,1.47.16,2.46.2,4.01.2h11.19ZM443.44,83.65v-6.51c0-2.5.04-3.53.12-5.87-1.55,2.18-2.54,3.37-4.33,5.04-.52-.83-.87-1.27-1.67-1.98,2.74-2.46,4.09-4.05,5.87-6.71,1.75-2.7,3.1-5.48,3.69-7.82l2.62.87c-.28.44-.44.83-.91,1.91-.79,1.91-1.71,3.69-2.9,5.64v15.44c0,2.18.04,3.41.2,4.92h-2.94c.16-1.43.24-2.62.24-4.92Z"/>
</svg>