<?xml version="1.0" encoding="UTF-8"?>
<svg id="_圖層_2" xmlns="http://www.w3.org/2000/svg" version="1.1" viewBox="0 0 376.06 300.91">
  <!-- Generator: Adobe Illustrator 29.6.1, SVG Export Plug-In . SVG Version: 2.1.1 Build 9)  -->
  <defs>
    <style>
      .st0 {
        fill: #fff;
      }
    </style>
  </defs>
  <g id="_圖層_1-2">
    <path class="st0" d="M310.76,273.94h5.39c-.29,1.2-.39,2.26-.39,4.08v12.59c0,3.12-1.32,5.66-3.87,7.48s-6.62,2.81-11.52,2.81c-9.8,0-15.24-3.67-15.24-10.29v-12.52c0-1.85-.1-2.99-.39-4.15h5.39c-.29,1.1-.39,2.23-.39,4.15v12.42c0,4.84,3.82,7.55,10.73,7.55s10.69-2.68,10.69-7.55v-12.42c0-1.85-.1-2.95-.39-4.15h-.01Z"/>
    <path class="st0" d="M242.23,296.07v-12.32c0-1.24.2-4.53.34-6.07-.78,2.09-1.37,3.16-3.04,5.8l-8.33,13.07c-1.03,1.58-1.47,2.5-1.96,3.84h-4.12c-.25-1-.88-2.33-1.91-3.88l-8.09-12.83c-1.42-2.23-1.81-2.95-3.23-6.04.2,2.5.34,5.32.34,6.35v12.08c0,1.96.1,3.12.39,4.32h-5.15c.29-1.3.39-2.37.39-4.32v-17.77c0-1.85-.1-3.05-.39-4.36h6.62c.34,1.1.93,2.4,1.67,3.6l11.47,18.36,11.47-18.36c.88-1.44,1.37-2.47,1.67-3.6h6.62c-.29,1.41-.39,2.4-.39,4.36v17.77c0,2.06.1,3.09.39,4.32h-5.15c.25-1.13.39-2.57.39-4.32Z"/>
    <path class="st0" d="M164.39,273.94h5.39c-.29,1.2-.39,2.26-.39,4.08v12.59c0,3.12-1.32,5.66-3.87,7.48-2.55,1.82-6.62,2.81-11.52,2.81-9.8,0-15.24-3.67-15.24-10.29v-12.52c0-1.85-.1-2.99-.39-4.15h5.39c-.29,1.1-.39,2.23-.39,4.15v12.42c0,4.84,3.82,7.55,10.73,7.55s10.69-2.68,10.69-7.55v-12.42c0-1.85-.1-2.95-.39-4.15h0Z"/>
    <path class="st0" d="M95.86,296.07v-12.32c0-1.24.2-4.53.34-6.07-.78,2.09-1.37,3.16-3.04,5.8l-8.33,13.07c-1.03,1.58-1.47,2.5-1.96,3.84h-4.12c-.25-1-.88-2.33-1.91-3.88l-8.09-12.83c-1.42-2.23-1.81-2.95-3.24-6.04.2,2.5.34,5.32.34,6.35v12.08c0,1.96.1,3.12.39,4.32h-5.15c.29-1.3.39-2.37.39-4.32v-17.77c0-1.85-.1-3.05-.39-4.36h6.62c.34,1.1.93,2.4,1.67,3.6l11.47,18.36,11.47-18.36c.88-1.44,1.37-2.47,1.67-3.6h6.62c-.29,1.41-.39,2.4-.39,4.36v17.77c0,2.06.1,3.09.39,4.32h-5.15c.25-1.13.39-2.57.39-4.32h.01Z"/>
    <path class="st0" d="M94.8,180.49h-10.05c.62-25.53.98-45.08,1.13-65.5,2.46-1.39,4.99-2.77,7.59-4.16.14,21.67.57,42.39,1.33,69.66Z"/>
    <path class="st0" d="M334.86,52.9v11.33c-17.83-2.05-34.49-3.81-50.32-5.25-.16,12.93-.28,23.18-.26,35.59l-1.48.55c-2.02.75-4.02,1.49-6,2.22.03-13.58,0-24.91-.15-39.07-65.44-5.66-117.45-5.95-183-.35-.17,13.29-.26,24.31-.23,37.04l-.22.12-.07.04-1.76.95c-1.85,1-3.66,1.97-5.43,2.91.03-13.8-.03-25.99-.19-40.35-16.53,1.5-33.95,3.37-52.68,5.61v-11.33c18.68-1.34,36.06-2.46,52.57-3.37-.2-15.14-.5-31.3-.89-49.53h10.04c-.44,18.06-.79,34.09-1.02,49.1,64.91-3.35,116.89-3.26,182.77.18-.2-15.07-.5-31.15-.89-49.29h10.04c-.45,18.31-.8,34.53-1.03,49.72,15.78.87,32.39,1.94,50.19,3.18h.01Z"/>
    <path class="st0" d="M316.56,210.52v-12.09c-101.18,14.9-158.17,15.52-260.16,0v12.09c100.97,7.85,158,7.76,260.16,0Z"/>
    <path class="st0" d="M285.7,180.49h-10.05c.64-26.21,1-46.46,1.14-67.37,2.48-.95,4.99-1.89,7.54-2.83.01,0,.03,0,.04.01.14,21.76.57,42.8,1.33,70.19h0Z"/>
    <path class="st0" d="M376.06,124.37v13.47h-4.53c-16.73,0-29.77-4.49-42.99-10.58-13.2-6.08-26.61-13.76-44.04-20.1l-.06-.03-.06.03s-.02,0-.03.01c-2.56.94-5.08,1.89-7.56,2.84-6.36,2.43-12.49,4.88-18.43,7.24-8.25,3.29-16.15,6.4-23.82,9.1-15.1,5.3-29.33,8.96-43.77,9.01h-.69c-14.63-.07-29.41-3.87-45.16-9.27-7.88-2.7-15.99-5.8-24.44-9.03-8.45-3.23-17.24-6.58-26.47-9.8l-.07-.03-.07.04c-.14.07-.28.15-.42.22-2.6,1.38-5.12,2.77-7.57,4.15-25.63,14.4-44.38,28.02-74.42,30.35l-6.95.49L0,142.78v-15.64l4.41-.29,6.77-.48c30.8-2.37,48.29-10.43,74.75-24.57,1.76-.93,3.56-1.91,5.41-2.9l1.75-.95.32.12,1.55.54,6.91,2.39c34.03,11.55,61.51,20.76,88.1,20.88,26.8.12,53.08-8.59,86.86-21.04,1.95-.72,3.94-1.45,5.94-2.2l1.54-.57h0l1.54.55c37.21,13.42,53.59,25.74,85.55,25.74h4.66Z"/>
  </g>
</svg>